<svg xmlns="http://www.w3.org/2000/svg" width="37" height="27" viewBox="0 0 37 27" fill="none">
<path fill-rule="evenodd" clip-rule="evenodd" d="M5.95801 0.958344C4.53247 0.958344 3.16532 1.52464 2.15731 2.53264C1.1493 3.54065 0.583008 4.90781 0.583008 6.33334V20.6667C0.583008 22.0922 1.1493 23.4594 2.15731 24.4674C3.16532 25.4754 4.53247 26.0417 5.95801 26.0417H23.8747C25.3002 26.0417 26.6674 25.4754 27.6754 24.4674C28.6834 23.4594 29.2497 22.0922 29.2497 20.6667V17.8251L33.358 21.9334C33.6085 22.1839 33.9277 22.3545 34.2752 22.4236C34.6227 22.4927 34.9829 22.4572 35.3103 22.3216C35.6376 22.186 35.9174 21.9564 36.1143 21.6619C36.3111 21.3673 36.4163 21.021 36.4163 20.6667V6.33334C36.4163 5.97904 36.3111 5.63272 36.1143 5.33815C35.9174 5.04358 35.6376 4.814 35.3103 4.67842C34.9829 4.54285 34.6227 4.50736 34.2752 4.57646C33.9277 4.64557 33.6085 4.81614 33.358 5.06664L29.2497 9.17493V6.33334C29.2497 4.90781 28.6834 3.54065 27.6754 2.53264C26.6674 1.52464 25.3002 0.958344 23.8747 0.958344H5.95801Z" fill="#236152"/>
</svg>